<?xml version="1.0" standalone="no"?>
<!DOCTYPE svg PUBLIC "-//W3C//DTD SVG 20010904//EN"
 "http://www.w3.org/TR/2001/REC-SVG-20010904/DTD/svg10.dtd">
<svg version="1.0" xmlns="http://www.w3.org/2000/svg"
 width="361.000000pt" height="361.000000pt" viewBox="0 0 361.000000 361.000000"
 preserveAspectRatio="xMidYMid meet">

<g transform="translate(0.000000,361.000000) scale(0.100000,-0.100000)"
fill="#000000" stroke="none">
<path d="M2259 2061 c-55 -11 -98 -65 -90 -113 3 -18 -18 -5 -59 37 -26 27
-53 45 -66 45 -13 0 -26 5 -29 10 -11 18 -29 11 -75 -30 -24 -21 -47 -35 -50
-31 -3 5 -24 12 -48 16 -23 4 -55 13 -70 20 -15 7 -62 15 -105 18 -77 4 -79 4
-89 -22 -5 -14 -18 -84 -29 -156 -35 -221 -47 -297 -60 -373 -12 -67 -12 -75
4 -83 19 -11 23 -44 7 -54 -5 -3 -10 -20 -10 -37 0 -27 2 -30 23 -23 12 4 76
11 142 14 l120 6 10 55 10 55 33 -58 32 -57 134 0 c79 0 137 -4 141 -10 4 -6
56 -10 122 -10 130 0 142 6 143 70 l1 35 21 -28 c11 -16 39 -41 62 -55 41 -27
42 -27 234 -27 198 0 200 0 216 40 2 6 15 4 32 -5 20 -10 43 -13 74 -9 25 3
34 7 22 7 -34 3 -92 31 -124 60 l-28 26 0 -25 c0 -14 -6 -34 -14 -44 -13 -17
-29 -19 -188 -20 -168 0 -176 1 -210 24 -43 30 -84 93 -94 146 -6 32 -8 36
-15 19 -4 -11 -10 -52 -14 -90 -4 -38 -12 -75 -17 -81 -15 -18 -457 -18 -481
0 -9 6 -27 35 -41 62 -47 94 -50 95 -65 20 -7 -36 -20 -72 -28 -80 -20 -21
-195 -21 -212 -1 -9 11 -9 32 3 93 19 105 44 254 56 333 18 127 37 231 43 237
4 3 55 2 114 -3 l108 -9 -3 -78 -3 -78 93 90 c51 50 100 91 109 91 9 0 47 -33
83 -72 l67 -73 -58 -53 c-32 -30 -82 -75 -110 -100 -59 -52 -59 -56 -14 -125
15 -23 48 -73 72 -111 l44 -69 7 34 c12 51 47 248 55 302 5 40 11 51 32 60 14
6 28 12 30 13 2 2 -9 14 -23 27 -34 32 -35 79 -1 123 48 62 113 79 171 44 65
-41 64 -128 -2 -178 -20 -15 -24 -21 -13 -22 29 0 38 -23 29 -65 -9 -45 -21
-181 -13 -150 37 143 188 257 300 226 20 -6 39 -8 42 -6 2 3 8 24 12 47 16 90
29 142 37 150 4 4 46 3 92 -2 47 -5 90 -10 96 -10 21 0 22 -24 2 -140 -10 -63
-25 -153 -33 -200 -7 -47 -18 -109 -24 -139 -6 -29 -11 -65 -11 -79 0 -23 5
-19 40 28 22 30 45 57 51 61 8 5 7 14 -5 30 -22 32 -21 126 2 161 45 68 129
107 232 108 63 1 72 3 55 13 -17 10 -67 17 -195 28 -8 1 -28 -3 -45 -8 l-30
-10 0 86 0 86 -35 3 c-19 2 -42 9 -50 17 -9 7 -52 15 -103 18 -99 6 -101 4
-113 -74 -4 -24 -10 -48 -14 -54 -5 -5 -10 -23 -12 -40 -2 -24 -7 -29 -23 -25
-50 12 -131 4 -174 -17 -25 -12 -47 -20 -50 -18 -2 3 0 5 6 5 6 0 16 19 22 43
21 74 -23 140 -123 181 -41 17 -43 17 -97 7z m-123 -343 c-3 -24 -14 -83 -23
-131 l-16 -88 -44 68 c-23 37 -43 70 -43 73 1 13 112 120 126 120 4 0 4 -19 0
-42z"/>
<path d="M505 2052 c-11 -4 -31 -14 -45 -24 -14 -9 -45 -22 -70 -29 -114 -32
-187 -125 -232 -299 -24 -89 -26 -170 -6 -225 l15 -40 6 100 c13 219 108 372
268 435 55 21 80 25 174 25 97 0 116 -3 160 -25 56 -28 115 -77 115 -95 0 -12
-152 -157 -171 -164 -6 -2 -21 7 -35 20 -18 17 -39 24 -82 27 -51 4 -62 1 -84
-19 -54 -52 -86 -222 -52 -274 14 -21 24 -25 70 -25 41 0 54 4 54 15 0 11 -12
15 -50 15 -60 0 -68 11 -50 73 6 23 17 65 24 92 l12 50 65 3 c35 1 114 -1 174
-5 l110 -8 -1 -40 c-2 -55 -24 -196 -34 -220 -5 -11 -12 -44 -15 -72 -7 -51
-9 -54 -53 -76 -47 -23 -150 -53 -207 -60 -27 -4 -26 -4 7 -6 20 0 39 -5 43
-10 3 -6 17 -4 33 5 15 7 40 14 55 14 15 0 54 13 87 30 l59 30 7 70 c7 74 19
88 36 42 16 -41 100 -100 155 -108 66 -10 162 1 213 25 57 25 131 94 159 146
29 55 30 207 2 263 -25 49 -75 97 -115 112 -17 7 -49 19 -71 28 -26 11 -67 17
-120 17 -105 -1 -182 -36 -235 -107 -34 -47 -62 -60 -76 -37 -4 7 20 38 60 75
36 35 66 71 66 79 0 37 -148 145 -199 145 -9 0 -26 6 -37 14 -23 17 -158 29
-189 18z m790 -248 c54 -25 101 -85 120 -150 14 -53 15 -65 1 -115 -25 -96
-78 -164 -168 -211 -35 -18 -59 -22 -133 -23 -77 0 -95 3 -127 23 -21 13 -38
27 -38 30 0 4 -11 19 -25 34 -55 59 -54 202 0 289 62 97 140 139 258 139 51 0
91 -6 112 -16z"/>
<path d="M1121 1604 c-35 -45 -26 -114 15 -114 47 0 89 118 48 134 -28 11 -42
6 -63 -20z"/>
<path d="M1666 1928 c-2 -7 -12 -62 -21 -123 -32 -206 -44 -280 -54 -340 -18
-99 -21 -95 59 -95 68 0 70 1 70 24 0 35 30 159 40 170 6 5 15 4 24 -3 16 -13
106 -168 106 -182 0 -5 45 -9 100 -9 55 0 100 2 100 6 0 3 -39 65 -86 139 -52
81 -82 139 -78 147 4 6 33 35 63 62 30 28 76 70 101 93 l45 42 -40 40 c-21 23
-43 41 -47 41 -5 0 -45 -35 -89 -77 -180 -173 -188 -175 -162 -24 8 46 13 84
11 86 -2 1 -33 5 -71 9 -51 5 -68 3 -71 -6z"/>
<path d="M3447 1744 c6 -15 23 -19 23 -5 0 5 -7 11 -14 14 -10 4 -13 1 -9 -9z"/>
<path d="M3430 1700 c-6 -11 -8 -20 -6 -20 3 0 10 9 16 20 6 11 8 20 6 20 -3
0 -10 -9 -16 -20z"/>
<path d="M3396 1653 c-6 -14 -5 -15 5 -6 7 7 10 15 7 18 -3 3 -9 -2 -12 -12z"/>
<path d="M3363 1614 c-3 -8 -2 -19 3 -24 5 -5 9 1 9 16 0 28 -3 30 -12 8z"/>
<path d="M2656 1605 c-20 -21 -32 -83 -17 -98 7 -7 19 -8 38 -1 22 8 29 18 35
54 5 31 4 46 -5 52 -18 12 -34 10 -51 -7z"/>
<path d="M3401 1534 c0 -11 3 -14 6 -6 3 7 2 16 -1 19 -3 4 -6 -2 -5 -13z"/>
<path d="M3402 1450 c0 -14 2 -19 5 -12 2 6 2 18 0 25 -3 6 -5 1 -5 -13z"/>
<path d="M171 1414 c0 -11 3 -14 6 -6 3 7 2 16 -1 19 -3 4 -6 -2 -5 -13z"/>
<path d="M3208 1303 c6 -2 18 -2 25 0 6 3 1 5 -13 5 -14 0 -19 -2 -12 -5z"/>
<path d="M413 1203 c15 -2 37 -2 50 0 12 2 0 4 -28 4 -27 0 -38 -2 -22 -4z"/>
</g>
</svg>
